# MagicaVoxel @ Ephtracy

# group
o 

# material
mtllib casa3.mtl
usemtl palette

# normals
vn -1 0 0
vn 1 0 0
vn 0 0 1
vn 0 0 -1
vn 0 -1 0
vn 0 1 0

# texcoords
vt 0.482422 0.5
vt 0.623047 0.5
vt 0.759766 0.5
vt 0.787109 0.5
vt 0.904297 0.5

# verts
v 4.1 0 2.9
v 4.1 0 -1.1
v 4.1 0.4 2.8
v 4.1 0.4 2.5
v 4.1 1 2.8
v 4.1 1 2.5
v 4.1 1.3 2.9
v 4.1 1.3 -1.1
v 4.1 1.4 2.9
v 4.1 1.4 -1.1
v 4.1 1.9 2.8
v 4.1 1.9 2.5
v 4.1 2.4 2.8
v 4.1 2.4 2.5
v 4.1 2.6 2.9
v 4.1 2.6 -1.1
v 4.1 2.7 2.9
v 4.1 2.7 -1.1
v 4.1 3.2 2.8
v 4.1 3.2 2.5
v 4.1 3.9 2.8
v 4.1 3.9 2.5
v 4.1 4 2.9
v 4.1 4 -1.1
v 4.2 1.3 2.8
v 4.2 1.3 -1
v 4.2 1.4 2.8
v 4.2 1.4 -1
v 4.2 2.6 2.8
v 4.2 2.6 -1
v 4.2 2.7 2.8
v 4.2 2.7 -1
v 5.6 0.4 2.9
v 5.6 0.4 2.8
v 5.6 1 2.9
v 5.6 1 2.8
v 6.4 0.1 2.5
v 6.4 0.1 2.4
v 6.4 0.1 2.1
v 6.4 0.8 2.5
v 6.4 0.8 2.4
v 6.4 0.9 2.4
v 6.4 0.9 2.1
v 6.5 0.1 2.9
v 6.5 0.1 2.8
v 6.5 1 2.9
v 6.5 1 2.8
v 8 0.1 2.8
v 8 0.1 2.5
v 8 0.4 2.9
v 8 0.4 2.8
v 8 0.4 2.5
v 8 1 2.9
v 8 1 2.8
v 8 1.9 2.9
v 8 1.9 2.8
v 8 2.4 2.9
v 8 2.4 2.8
v 8 3.2 2.9
v 8 3.2 2.8
v 8 3.9 2.9
v 8 3.9 2.8
v 4.2 0.1 2.8
v 4.2 0.1 2.5
v 4.2 0.4 2.9
v 4.2 0.4 2.8
v 4.2 0.4 2.5
v 4.2 1 2.9
v 4.2 1 2.8
v 4.2 1.9 2.9
v 4.2 1.9 2.8
v 4.2 2.4 2.9
v 4.2 2.4 2.8
v 4.2 3.2 2.9
v 4.2 3.2 2.8
v 4.2 3.9 2.9
v 4.2 3.9 2.8
v 5.7 0.1 2.9
v 5.7 0.1 2.8
v 5.7 1 2.9
v 5.7 1 2.8
v 5.8 0.1 2.5
v 5.8 0.1 2.4
v 5.8 0.1 2.1
v 5.8 0.8 2.5
v 5.8 0.8 2.4
v 5.8 0.9 2.4
v 5.8 0.9 2.1
v 6.6 0.4 2.9
v 6.6 0.4 2.8
v 6.6 1 2.9
v 6.6 1 2.8
v 8 1.3 2.8
v 8 1.3 -1
v 8 1.4 2.8
v 8 1.4 -1
v 8 2.6 2.8
v 8 2.6 -1
v 8 2.7 2.8
v 8 2.7 -1
v 8.1 0 2.9
v 8.1 0 -1.1
v 8.1 0.4 2.8
v 8.1 0.4 2.5
v 8.1 1 2.8
v 8.1 1 2.5
v 8.1 1.3 2.9
v 8.1 1.3 -1.1
v 8.1 1.4 2.9
v 8.1 1.4 -1.1
v 8.1 1.9 2.8
v 8.1 1.9 2.5
v 8.1 2.4 2.8
v 8.1 2.4 2.5
v 8.1 2.6 2.9
v 8.1 2.6 -1.1
v 8.1 2.7 2.9
v 8.1 2.7 -1.1
v 8.1 3.2 2.8
v 8.1 3.2 2.5
v 8.1 3.9 2.8
v 8.1 3.9 2.5
v 8.1 4 2.9
v 8.1 4 -1.1
v 4.1 0 2.9
v 4.1 1.3 2.9
v 4.1 1.4 2.9
v 4.1 2.6 2.9
v 4.1 2.7 2.9
v 4.1 4 2.9
v 4.2 0.4 2.9
v 4.2 1 2.9
v 4.2 1.4 2.9
v 4.2 1.9 2.9
v 4.2 2.4 2.9
v 4.2 2.7 2.9
v 4.2 3.2 2.9
v 4.2 3.9 2.9
v 5.6 0.4 2.9
v 5.6 1 2.9
v 5.7 0.1 2.9
v 5.7 1 2.9
v 6.5 0.1 2.9
v 6.5 1 2.9
v 6.6 0.4 2.9
v 6.6 1 2.9
v 8 0.4 2.9
v 8 1 2.9
v 8 1.4 2.9
v 8 1.9 2.9
v 8 2.4 2.9
v 8 2.7 2.9
v 8 3.2 2.9
v 8 3.9 2.9
v 8.1 0 2.9
v 8.1 1.3 2.9
v 8.1 1.4 2.9
v 8.1 2.6 2.9
v 8.1 2.7 2.9
v 8.1 4 2.9
v 4.2 1.3 2.8
v 4.2 1.4 2.8
v 4.2 2.6 2.8
v 4.2 2.7 2.8
v 8 1.3 2.8
v 8 1.4 2.8
v 8 2.6 2.8
v 8 2.7 2.8
v 4.1 0.4 2.5
v 4.1 1 2.5
v 4.1 1.9 2.5
v 4.1 2.4 2.5
v 4.1 3.2 2.5
v 4.1 3.9 2.5
v 4.2 0.1 2.5
v 4.2 0.4 2.5
v 4.2 1 2.5
v 4.2 1.9 2.5
v 4.2 2.4 2.5
v 4.2 3.2 2.5
v 4.2 3.9 2.5
v 4.9 1.9 2.5
v 4.9 2.4 2.5
v 4.9 3.2 2.5
v 4.9 3.9 2.5
v 5 1.9 2.5
v 5 2.4 2.5
v 5 3.2 2.5
v 5 3.9 2.5
v 5.8 0.1 2.5
v 5.8 0.8 2.5
v 6.4 0.1 2.5
v 6.4 0.8 2.5
v 7.2 1.9 2.5
v 7.2 2.4 2.5
v 7.2 3.2 2.5
v 7.2 3.9 2.5
v 7.3 1.9 2.5
v 7.3 2.4 2.5
v 7.3 3.2 2.5
v 7.3 3.9 2.5
v 8 0.1 2.5
v 8 0.4 2.5
v 8 1 2.5
v 8 1.9 2.5
v 8 2.4 2.5
v 8 3.2 2.5
v 8 3.9 2.5
v 8.1 0.4 2.5
v 8.1 1 2.5
v 8.1 1.9 2.5
v 8.1 2.4 2.5
v 8.1 3.2 2.5
v 8.1 3.9 2.5
v 5.8 0.1 2.1
v 5.8 0.9 2.1
v 6.4 0.1 2.1
v 6.4 0.9 2.1
v 4.1 0.4 2.8
v 4.1 1 2.8
v 4.1 1.9 2.8
v 4.1 2.4 2.8
v 4.1 3.2 2.8
v 4.1 3.9 2.8
v 4.2 0.1 2.8
v 4.2 0.4 2.8
v 4.2 1 2.8
v 4.2 1.9 2.8
v 4.2 2.4 2.8
v 4.2 3.2 2.8
v 4.2 3.9 2.8
v 5.6 0.4 2.8
v 5.6 1 2.8
v 5.7 0.1 2.8
v 5.7 1 2.8
v 6.5 0.1 2.8
v 6.5 1 2.8
v 6.6 0.4 2.8
v 6.6 1 2.8
v 8 0.1 2.8
v 8 0.4 2.8
v 8 1 2.8
v 8 1.9 2.8
v 8 2.4 2.8
v 8 3.2 2.8
v 8 3.9 2.8
v 8.1 0.4 2.8
v 8.1 1 2.8
v 8.1 1.9 2.8
v 8.1 2.4 2.8
v 8.1 3.2 2.8
v 8.1 3.9 2.8
v 5.8 0.8 2.4
v 5.8 0.9 2.4
v 6.4 0.8 2.4
v 6.4 0.9 2.4
v 4.2 1.3 -1
v 4.2 1.4 -1
v 4.2 2.6 -1
v 4.2 2.7 -1
v 8 1.3 -1
v 8 1.4 -1
v 8 2.6 -1
v 8 2.7 -1
v 4.1 0 -1.1
v 4.1 1.3 -1.1
v 4.1 1.4 -1.1
v 4.1 2.6 -1.1
v 4.1 2.7 -1.1
v 4.1 4 -1.1
v 8.1 0 -1.1
v 8.1 1.3 -1.1
v 8.1 1.4 -1.1
v 8.1 2.6 -1.1
v 8.1 2.7 -1.1
v 8.1 4 -1.1
v 4.1 0 2.9
v 8.1 0 2.9
v 4.1 0 -1.1
v 8.1 0 -1.1
v 5.8 0.8 2.5
v 6.4 0.8 2.5
v 5.8 0.8 2.4
v 6.4 0.8 2.4
v 5.8 0.9 2.4
v 6.4 0.9 2.4
v 5.8 0.9 2.1
v 6.4 0.9 2.1
v 4.2 1 2.9
v 5.6 1 2.9
v 5.7 1 2.9
v 6.5 1 2.9
v 6.6 1 2.9
v 8 1 2.9
v 4.1 1 2.8
v 4.2 1 2.8
v 5.6 1 2.8
v 5.7 1 2.8
v 6.5 1 2.8
v 6.6 1 2.8
v 8 1 2.8
v 8.1 1 2.8
v 4.1 1 2.5
v 4.2 1 2.5
v 8 1 2.5
v 8.1 1 2.5
v 4.1 1.4 2.9
v 4.2 1.4 2.9
v 8 1.4 2.9
v 8.1 1.4 2.9
v 4.2 1.4 2.8
v 8 1.4 2.8
v 4.2 1.4 -1
v 8 1.4 -1
v 4.1 1.4 -1.1
v 8.1 1.4 -1.1
v 4.2 2.4 2.9
v 8 2.4 2.9
v 4.1 2.4 2.8
v 4.2 2.4 2.8
v 8 2.4 2.8
v 8.1 2.4 2.8
v 4.1 2.4 2.5
v 4.2 2.4 2.5
v 4.9 2.4 2.5
v 5 2.4 2.5
v 7.2 2.4 2.5
v 7.3 2.4 2.5
v 8 2.4 2.5
v 8.1 2.4 2.5
v 4.1 2.7 2.9
v 4.2 2.7 2.9
v 8 2.7 2.9
v 8.1 2.7 2.9
v 4.2 2.7 2.8
v 8 2.7 2.8
v 4.2 2.7 -1
v 8 2.7 -1
v 4.1 2.7 -1.1
v 8.1 2.7 -1.1
v 4.2 3.9 2.9
v 8 3.9 2.9
v 4.1 3.9 2.8
v 4.2 3.9 2.8
v 8 3.9 2.8
v 8.1 3.9 2.8
v 4.1 3.9 2.5
v 4.2 3.9 2.5
v 4.9 3.9 2.5
v 5 3.9 2.5
v 7.2 3.9 2.5
v 7.3 3.9 2.5
v 8 3.9 2.5
v 8.1 3.9 2.5
v 5.7 0.1 2.9
v 6.5 0.1 2.9
v 4.2 0.1 2.8
v 5.7 0.1 2.8
v 6.5 0.1 2.8
v 8 0.1 2.8
v 4.2 0.1 2.5
v 5.8 0.1 2.5
v 6.4 0.1 2.5
v 8 0.1 2.5
v 5.8 0.1 2.4
v 6.4 0.1 2.4
v 5.8 0.1 2.1
v 6.4 0.1 2.1
v 4.2 0.4 2.9
v 5.6 0.4 2.9
v 6.6 0.4 2.9
v 8 0.4 2.9
v 4.1 0.4 2.8
v 4.2 0.4 2.8
v 5.6 0.4 2.8
v 6.6 0.4 2.8
v 8 0.4 2.8
v 8.1 0.4 2.8
v 4.1 0.4 2.5
v 4.2 0.4 2.5
v 8 0.4 2.5
v 8.1 0.4 2.5
v 4.1 1.3 2.9
v 8.1 1.3 2.9
v 4.2 1.3 2.8
v 8 1.3 2.8
v 4.2 1.3 -1
v 8 1.3 -1
v 4.1 1.3 -1.1
v 8.1 1.3 -1.1
v 4.2 1.9 2.9
v 8 1.9 2.9
v 4.1 1.9 2.8
v 4.2 1.9 2.8
v 8 1.9 2.8
v 8.1 1.9 2.8
v 4.1 1.9 2.5
v 4.2 1.9 2.5
v 4.9 1.9 2.5
v 5 1.9 2.5
v 7.2 1.9 2.5
v 7.3 1.9 2.5
v 8 1.9 2.5
v 8.1 1.9 2.5
v 4.1 2.6 2.9
v 8.1 2.6 2.9
v 4.2 2.6 2.8
v 8 2.6 2.8
v 4.2 2.6 -1
v 8 2.6 -1
v 4.1 2.6 -1.1
v 8.1 2.6 -1.1
v 4.2 3.2 2.9
v 8 3.2 2.9
v 4.1 3.2 2.8
v 4.2 3.2 2.8
v 8 3.2 2.8
v 8.1 3.2 2.8
v 4.1 3.2 2.5
v 4.2 3.2 2.5
v 4.9 3.2 2.5
v 5 3.2 2.5
v 7.2 3.2 2.5
v 7.3 3.2 2.5
v 8 3.2 2.5
v 8.1 3.2 2.5
v 4.1 4 2.9
v 8.1 4 2.9
v 4.1 4 -1.1
v 8.1 4 -1.1

# faces
f 3/2/1 2/2/1 1/2/1
f 4/2/1 2/2/1 3/2/1
f 5/2/1 3/2/1 1/2/1
f 6/2/1 2/2/1 4/2/1
f 7/2/1 5/2/1 1/2/1
f 7/2/1 6/2/1 5/2/1
f 8/2/1 2/2/1 6/2/1
f 8/2/1 6/2/1 7/2/1
f 11/2/1 10/2/1 9/2/1
f 12/2/1 10/2/1 11/2/1
f 13/2/1 11/2/1 9/2/1
f 14/2/1 10/2/1 12/2/1
f 15/2/1 13/2/1 9/2/1
f 15/2/1 14/2/1 13/2/1
f 16/2/1 10/2/1 14/2/1
f 16/2/1 14/2/1 15/2/1
f 19/2/1 18/2/1 17/2/1
f 20/2/1 18/2/1 19/2/1
f 21/2/1 19/2/1 17/2/1
f 22/2/1 18/2/1 20/2/1
f 23/2/1 21/2/1 17/2/1
f 23/2/1 22/2/1 21/2/1
f 24/2/1 18/2/1 22/2/1
f 24/2/1 22/2/1 23/2/1
f 27/5/1 26/5/1 25/5/1
f 28/5/1 26/5/1 27/5/1
f 31/5/1 30/5/1 29/5/1
f 32/5/1 30/5/1 31/5/1
f 35/2/1 34/2/1 33/2/1
f 36/2/1 34/2/1 35/2/1
f 40/4/1 38/4/1 37/4/1
f 41/2/1 39/2/1 38/2/1
f 41/4/1 38/4/1 40/4/1
f 42/2/1 39/2/1 41/2/1
f 43/2/1 39/2/1 42/2/1
f 46/2/1 45/2/1 44/2/1
f 47/2/1 45/2/1 46/2/1
f 51/2/1 49/2/1 48/2/1
f 52/2/1 49/2/1 51/2/1
f 53/2/1 51/2/1 50/2/1
f 54/2/1 51/2/1 53/2/1
f 57/2/1 56/2/1 55/2/1
f 58/2/1 56/2/1 57/2/1
f 61/2/1 60/2/1 59/2/1
f 62/2/1 60/2/1 61/2/1
f 63/2/2 64/2/2 66/2/2
f 66/2/2 64/2/2 67/2/2
f 65/2/2 66/2/2 68/2/2
f 68/2/2 66/2/2 69/2/2
f 70/2/2 71/2/2 72/2/2
f 72/2/2 71/2/2 73/2/2
f 74/2/2 75/2/2 76/2/2
f 76/2/2 75/2/2 77/2/2
f 78/2/2 79/2/2 80/2/2
f 80/2/2 79/2/2 81/2/2
f 82/4/2 83/4/2 85/4/2
f 83/2/2 84/2/2 86/2/2
f 85/4/2 83/4/2 86/4/2
f 86/2/2 84/2/2 87/2/2
f 87/2/2 84/2/2 88/2/2
f 89/2/2 90/2/2 91/2/2
f 91/2/2 90/2/2 92/2/2
f 93/5/2 94/5/2 95/5/2
f 95/5/2 94/5/2 96/5/2
f 97/5/2 98/5/2 99/5/2
f 99/5/2 98/5/2 100/5/2
f 101/2/2 102/2/2 103/2/2
f 103/2/2 102/2/2 104/2/2
f 101/2/2 103/2/2 105/2/2
f 104/2/2 102/2/2 106/2/2
f 101/2/2 105/2/2 107/2/2
f 105/2/2 106/2/2 107/2/2
f 106/2/2 102/2/2 108/2/2
f 107/2/2 106/2/2 108/2/2
f 109/2/2 110/2/2 111/2/2
f 111/2/2 110/2/2 112/2/2
f 109/2/2 111/2/2 113/2/2
f 112/2/2 110/2/2 114/2/2
f 109/2/2 113/2/2 115/2/2
f 113/2/2 114/2/2 115/2/2
f 114/2/2 110/2/2 116/2/2
f 115/2/2 114/2/2 116/2/2
f 117/2/2 118/2/2 119/2/2
f 119/2/2 118/2/2 120/2/2
f 117/2/2 119/2/2 121/2/2
f 120/2/2 118/2/2 122/2/2
f 117/2/2 121/2/2 123/2/2
f 121/2/2 122/2/2 123/2/2
f 122/2/2 118/2/2 124/2/2
f 123/2/2 122/2/2 124/2/2
f 131/2/3 126/2/3 125/2/3
f 132/2/3 126/2/3 131/2/3
f 133/2/3 128/2/3 127/2/3
f 134/2/3 128/2/3 133/2/3
f 135/2/3 128/2/3 134/2/3
f 136/2/3 130/2/3 129/2/3
f 137/2/3 130/2/3 136/2/3
f 138/2/3 130/2/3 137/2/3
f 139/2/3 131/2/3 125/2/3
f 140/2/3 126/2/3 132/2/3
f 141/2/3 139/2/3 125/2/3
f 141/2/3 140/2/3 139/2/3
f 142/2/3 126/2/3 140/2/3
f 142/2/3 140/2/3 141/2/3
f 143/2/3 141/2/3 125/2/3
f 144/2/3 126/2/3 142/2/3
f 145/2/3 144/2/3 143/2/3
f 146/2/3 126/2/3 144/2/3
f 146/2/3 144/2/3 145/2/3
f 147/2/3 145/2/3 143/2/3
f 148/2/3 126/2/3 146/2/3
f 149/4/3 134/4/3 133/4/3
f 150/4/3 134/4/3 149/4/3
f 151/2/3 128/2/3 135/2/3
f 152/4/3 137/4/3 136/4/3
f 153/4/3 137/4/3 152/4/3
f 154/2/3 130/2/3 138/2/3
f 155/2/3 143/2/3 125/2/3
f 155/2/3 148/2/3 147/2/3
f 155/2/3 147/2/3 143/2/3
f 156/2/3 126/2/3 148/2/3
f 156/2/3 148/2/3 155/2/3
f 157/2/3 150/2/3 149/2/3
f 157/2/3 151/2/3 150/2/3
f 158/2/3 128/2/3 151/2/3
f 158/2/3 151/2/3 157/2/3
f 159/2/3 154/2/3 153/2/3
f 159/2/3 153/2/3 152/2/3
f 160/2/3 130/2/3 154/2/3
f 160/2/3 154/2/3 159/2/3
f 165/5/3 162/5/3 161/5/3
f 166/5/3 162/5/3 165/5/3
f 167/5/3 164/5/3 163/5/3
f 168/5/3 164/5/3 167/5/3
f 176/2/3 170/2/3 169/2/3
f 177/2/3 170/2/3 176/2/3
f 178/2/3 172/2/3 171/2/3
f 179/2/3 172/2/3 178/2/3
f 180/2/3 174/2/3 173/2/3
f 181/2/3 174/2/3 180/2/3
f 182/1/3 179/1/3 178/1/3
f 183/1/3 179/1/3 182/1/3
f 184/1/3 181/1/3 180/1/3
f 185/1/3 181/1/3 184/1/3
f 186/2/3 183/2/3 182/2/3
f 187/2/3 183/2/3 186/2/3
f 188/4/3 185/4/3 184/4/3
f 189/4/3 185/4/3 188/4/3
f 190/4/3 177/4/3 176/4/3
f 190/4/3 176/4/3 175/4/3
f 191/4/3 177/4/3 190/4/3
f 193/4/3 177/4/3 191/4/3
f 194/1/3 187/1/3 186/1/3
f 195/1/3 187/1/3 194/1/3
f 196/1/3 189/1/3 188/1/3
f 197/1/3 189/1/3 196/1/3
f 198/2/3 195/2/3 194/2/3
f 199/2/3 195/2/3 198/2/3
f 200/4/3 197/4/3 196/4/3
f 201/4/3 197/4/3 200/4/3
f 202/4/3 193/4/3 192/4/3
f 203/4/3 193/4/3 202/4/3
f 204/4/3 177/4/3 193/4/3
f 204/4/3 193/4/3 203/4/3
f 205/1/3 199/1/3 198/1/3
f 206/1/3 199/1/3 205/1/3
f 207/1/3 201/1/3 200/1/3
f 208/1/3 201/1/3 207/1/3
f 209/2/3 204/2/3 203/2/3
f 210/2/3 204/2/3 209/2/3
f 211/2/3 206/2/3 205/2/3
f 212/2/3 206/2/3 211/2/3
f 213/2/3 208/2/3 207/2/3
f 214/2/3 208/2/3 213/2/3
f 217/3/3 216/3/3 215/3/3
f 218/3/3 216/3/3 217/3/3
f 219/2/4 220/2/4 226/2/4
f 226/2/4 220/2/4 227/2/4
f 221/2/4 222/2/4 228/2/4
f 228/2/4 222/2/4 229/2/4
f 223/2/4 224/2/4 230/2/4
f 230/2/4 224/2/4 231/2/4
f 225/2/4 226/2/4 232/2/4
f 225/2/4 232/2/4 234/2/4
f 232/2/4 233/2/4 234/2/4
f 234/2/4 233/2/4 235/2/4
f 236/2/4 237/2/4 238/2/4
f 238/2/4 237/2/4 239/2/4
f 236/2/4 238/2/4 240/2/4
f 240/2/4 238/2/4 241/2/4
f 241/2/4 242/2/4 247/2/4
f 247/2/4 242/2/4 248/2/4
f 243/2/4 244/2/4 249/2/4
f 249/2/4 244/2/4 250/2/4
f 245/2/4 246/2/4 251/2/4
f 251/2/4 246/2/4 252/2/4
f 253/4/4 254/4/4 255/4/4
f 255/4/4 254/4/4 256/4/4
f 257/5/4 258/5/4 261/5/4
f 261/5/4 258/5/4 262/5/4
f 259/5/4 260/5/4 263/5/4
f 263/5/4 260/5/4 264/5/4
f 265/2/4 266/2/4 271/2/4
f 271/2/4 266/2/4 272/2/4
f 267/2/4 268/2/4 273/2/4
f 273/2/4 268/2/4 274/2/4
f 269/2/4 270/2/4 275/2/4
f 275/2/4 270/2/4 276/2/4
f 279/2/5 278/2/5 277/2/5
f 280/2/5 278/2/5 279/2/5
f 283/4/5 282/4/5 281/4/5
f 284/4/5 282/4/5 283/4/5
f 287/2/5 286/2/5 285/2/5
f 288/2/5 286/2/5 287/2/5
f 296/2/5 290/2/5 289/2/5
f 297/2/5 290/2/5 296/2/5
f 298/2/5 292/2/5 291/2/5
f 299/2/5 292/2/5 298/2/5
f 300/2/5 294/2/5 293/2/5
f 301/2/5 294/2/5 300/2/5
f 303/2/5 299/2/5 298/2/5
f 303/2/5 302/2/5 301/2/5
f 303/2/5 301/2/5 300/2/5
f 303/2/5 300/2/5 299/2/5
f 303/2/5 297/2/5 296/2/5
f 303/2/5 298/2/5 297/2/5
f 303/2/5 296/2/5 295/2/5
f 304/2/5 302/2/5 303/2/5
f 305/2/5 302/2/5 304/2/5
f 306/2/5 302/2/5 305/2/5
f 311/2/5 308/2/5 307/2/5
f 311/4/5 309/4/5 308/4/5
f 312/2/5 310/2/5 309/2/5
f 312/4/5 309/4/5 311/4/5
f 313/2/5 311/2/5 307/2/5
f 314/2/5 310/2/5 312/2/5
f 315/2/5 313/2/5 307/2/5
f 315/2/5 314/2/5 313/2/5
f 316/2/5 310/2/5 314/2/5
f 316/2/5 314/2/5 315/2/5
f 320/2/5 318/2/5 317/2/5
f 321/2/5 318/2/5 320/2/5
f 323/2/5 320/2/5 319/2/5
f 323/2/5 322/2/5 321/2/5
f 323/2/5 321/2/5 320/2/5
f 324/2/5 322/2/5 323/2/5
f 325/2/5 322/2/5 324/2/5
f 326/2/5 322/2/5 325/2/5
f 327/2/5 322/2/5 326/2/5
f 328/2/5 322/2/5 327/2/5
f 329/2/5 322/2/5 328/2/5
f 330/2/5 322/2/5 329/2/5
f 335/2/5 332/2/5 331/2/5
f 335/4/5 333/4/5 332/4/5
f 336/2/5 334/2/5 333/2/5
f 336/4/5 333/4/5 335/4/5
f 337/2/5 335/2/5 331/2/5
f 338/2/5 334/2/5 336/2/5
f 339/2/5 337/2/5 331/2/5
f 339/2/5 338/2/5 337/2/5
f 340/2/5 334/2/5 338/2/5
f 340/2/5 338/2/5 339/2/5
f 344/2/5 342/2/5 341/2/5
f 345/2/5 342/2/5 344/2/5
f 347/2/5 344/2/5 343/2/5
f 347/2/5 346/2/5 345/2/5
f 347/2/5 345/2/5 344/2/5
f 348/2/5 346/2/5 347/2/5
f 349/2/5 346/2/5 348/2/5
f 350/2/5 346/2/5 349/2/5
f 351/2/5 346/2/5 350/2/5
f 352/2/5 346/2/5 351/2/5
f 353/2/5 346/2/5 352/2/5
f 354/2/5 346/2/5 353/2/5
f 355/2/6 356/2/6 358/2/6
f 358/2/6 356/2/6 359/2/6
f 357/2/6 358/2/6 361/2/6
f 359/2/6 360/2/6 361/2/6
f 358/2/6 359/2/6 361/2/6
f 361/2/6 360/2/6 362/2/6
f 362/2/6 360/2/6 363/2/6
f 363/2/6 360/2/6 364/2/6
f 362/2/6 363/2/6 365/2/6
f 365/2/6 363/2/6 366/2/6
f 365/2/6 366/2/6 367/2/6
f 367/2/6 366/2/6 368/2/6
f 369/2/6 370/2/6 374/2/6
f 374/2/6 370/2/6 375/2/6
f 371/2/6 372/2/6 376/2/6
f 376/2/6 372/2/6 377/2/6
f 373/2/6 374/2/6 379/2/6
f 379/2/6 374/2/6 380/2/6
f 377/2/6 378/2/6 381/2/6
f 381/2/6 378/2/6 382/2/6
f 383/2/6 384/2/6 385/2/6
f 385/2/6 384/2/6 386/2/6
f 383/2/6 385/2/6 387/2/6
f 386/2/6 384/2/6 388/2/6
f 383/2/6 387/2/6 389/2/6
f 387/2/6 388/2/6 389/2/6
f 388/2/6 384/2/6 390/2/6
f 389/2/6 388/2/6 390/2/6
f 391/4/6 392/4/6 394/4/6
f 394/4/6 392/4/6 395/4/6
f 393/2/6 394/2/6 397/2/6
f 394/4/6 395/4/6 398/4/6
f 397/2/6 394/2/6 398/2/6
f 398/4/6 395/4/6 399/4/6
f 399/4/6 395/4/6 400/4/6
f 400/4/6 395/4/6 401/4/6
f 401/4/6 395/4/6 402/4/6
f 395/2/6 396/2/6 403/2/6
f 402/4/6 395/4/6 403/4/6
f 403/2/6 396/2/6 404/2/6
f 405/2/6 406/2/6 407/2/6
f 407/2/6 406/2/6 408/2/6
f 405/2/6 407/2/6 409/2/6
f 408/2/6 406/2/6 410/2/6
f 405/2/6 409/2/6 411/2/6
f 409/2/6 410/2/6 411/2/6
f 410/2/6 406/2/6 412/2/6
f 411/2/6 410/2/6 412/2/6
f 413/4/6 414/4/6 416/4/6
f 416/4/6 414/4/6 417/4/6
f 415/2/6 416/2/6 419/2/6
f 416/4/6 417/4/6 420/4/6
f 419/2/6 416/2/6 420/2/6
f 420/4/6 417/4/6 421/4/6
f 421/4/6 417/4/6 422/4/6
f 422/4/6 417/4/6 423/4/6
f 423/4/6 417/4/6 424/4/6
f 417/2/6 418/2/6 425/2/6
f 424/4/6 417/4/6 425/4/6
f 425/2/6 418/2/6 426/2/6
f 427/2/6 428/2/6 429/2/6
f 429/2/6 428/2/6 430/2/6
